<?xml version="1.0" encoding="UTF-8" standalone="no"?>
<!-- Generator: Adobe Illustrator 15.0.0, SVG Export Plug-In . SVG Version: 6.00 Build 0)  -->

<svg
   xmlns:dc="http://purl.org/dc/elements/1.1/"
   xmlns:cc="http://creativecommons.org/ns#"
   xmlns:rdf="http://www.w3.org/1999/02/22-rdf-syntax-ns#"
   xmlns:svg="http://www.w3.org/2000/svg"
   xmlns="http://www.w3.org/2000/svg"
   xmlns:sodipodi="http://sodipodi.sourceforge.net/DTD/sodipodi-0.dtd"
   xmlns:inkscape="http://www.inkscape.org/namespaces/inkscape"
   version="1.1"
   id="svg106"
   sodipodi:docname="malboxes-as-path.svg"
   inkscape:version="0.92.4 5da689c313, 2019-01-14"
   x="0px"
   y="0px"
   width="395"
   height="100"
   viewBox="0 0 395 100"
   enable-background="new 0 0 410.979 101.395"
   xml:space="preserve"><metadata
   id="metadata16"><rdf:RDF><cc:Work
       rdf:about=""><dc:format>image/svg+xml</dc:format><dc:type
         rdf:resource="http://purl.org/dc/dcmitype/StillImage" /><dc:title></dc:title></cc:Work></rdf:RDF></metadata><defs
   id="defs14" />
<sodipodi:namedview
   id="namedview108"
   inkscape:current-layer="svg106"
   guidetolerance="10"
   inkscape:pageopacity="0"
   inkscape:window-x="0"
   inkscape:window-y="27"
   inkscape:zoom="2.7641315"
   inkscape:cx="123.90872"
   inkscape:window-width="2560"
   borderopacity="1"
   objecttolerance="10"
   inkscape:window-height="1016"
   inkscape:cy="50.697498"
   bordercolor="#666666"
   inkscape:window-maximized="1"
   inkscape:pageshadow="2"
   showgrid="true"
   gridtolerance="10"
   pagecolor="#ffffff"
   inkscape:snap-grids="true">
	<inkscape:grid
   type="xygrid"
   id="grid823" /></sodipodi:namedview>
<g
   id="Layer_1"
   transform="translate(0,-1.3949966)">
</g>
<g
   id="Layer_2"
   transform="translate(0,-1.3949966)">
</g>
<polygon
   id="polygon91"
   points="254.25,31.073 254.25,76.477 222.851,89.243 222.851,39.358 "
   transform="translate(0,-1.3949966)" />
<polygon
   id="polygon93"
   points="190.732,30.553 222.626,24.16 254.25,30.553 222.325,38.365 "
   transform="translate(0,-1.3949966)" />
<path
   id="path95"
   inkscape:connector-curvature="0"
   d="m 190.306,29.867003 v 45.039 l 31.46,12.942 v -49.918 z m 3.575,33.017 c -0.132,-0.182 -0.201,-0.616 -0.267,-0.976 -0.196,-1.069 -0.314,-2.392 -0.267,-3.644 0.182,-4.872 2.003,-7.218 4.388,-8.018 -0.348,-3.586 0.348,-6.188 1.365,-7.925 1.057,-1.802 2.517,-2.75 4.441,-2.817 0.048,0 0.113,-0.022 0.215,0.023 0.105,0.543 -0.189,0.388 -0.433,0.429 -1.041,0.169 -1.89,0.884 -2.47,1.818 -0.668,1.069 -1.225,2.688 -1.103,5.01 0.113,2.163 0.687,3.895 1.456,5.318 0.793,1.471 1.816,2.554 3.271,3.242 0,0.377 0,0.755 0,1.134 -0.83,-0.064 -1.405,0.961 -1.106,2.51 -0.183,0.173 -0.422,0.236 -0.623,0.371 -1,-2.635 -3.142,-5.352 -5.61,-4.993 -2.027,0.293 -3.8,2.918 -3.235,7.398 0.029,0.232 0.062,0.526 0.088,0.738 0.035,0.25 0.083,0.373 -0.11,0.382 z m 10.407,-14.18 c 1.931,0.397 3.475,1.97 4.564,3.539 -0.266,0.735 -0.643,1.266 -1.068,1.704 -0.76,-1.065 -1.795,-2.152 -3.061,-2.548 -1.248,-0.393 -2.259,0.017 -2.972,0.628 -0.44,-0.638 -0.749,-1.431 -1.039,-2.244 0.83,-0.85 2.077,-1.39 3.576,-1.079 z m -1.322,16.187 c -0.125,0.867 -0.333,1.575 -0.619,2.133 -2.475,-2.584 -4.224,-6.299 -3.965,-11.778 0.02,-0.021 0.016,-0.095 0.047,-0.091 0.618,0.179 1.116,0.513 1.581,0.887 -0.228,4.085 1.096,6.933 2.956,8.849 z m 12.346,8.905 c -1.119,1.562 -2.65,2.437 -4.727,2.099 -2.568,-0.418 -4.494,-2.471 -5.838,-4.644 -1.367,1.002 -3.145,1.725 -5.646,0.158 -1.463,-0.911 -2.677,-2.402 -3.577,-4.059 -0.181,-0.334 -0.826,-1.535 -0.745,-1.697 0.149,-0.3 0.447,0.436 0.608,0.726 0.6,1.062 1.296,1.94 2.211,2.588 1.409,0.995 2.76,0.87 3.633,0.354 0.898,-0.533 1.67,-1.724 2.022,-3.232 0.386,-1.651 0.347,-4.152 -0.288,-5.965 0.164,-0.191 0.467,-0.316 0.646,-0.357 0.467,1.212 1.836,1.521 2.254,0.775 0.22,0.262 0.469,0.486 0.635,0.811 -0.65,1.377 -0.686,3.87 -0.293,5.823 0.361,1.803 1.156,3.601 2.096,4.853 0.932,1.241 2.387,2.466 3.934,2.598 1.166,0.099 2.072,-0.367 2.84,-1.184 0.21,-0.223 0.214,-0.25 0.339,0.014 0.091,0.193 0.017,0.173 -0.104,0.339 z m -5.709,-14.539 c 0.502,-0.066 1.049,-0.061 1.742,0.209 0.399,5.941 -1.613,8.591 -4.179,9.356 -0.334,-0.756 -0.519,-1.681 -0.665,-2.642 1.936,-0.566 3.346,-2.526 3.102,-6.923 z m 6.916,11.982 c -0.246,-0.159 -0.197,-0.264 -0.156,-0.517 0.099,-0.651 0.236,-1.438 0.236,-2.281 0,-3.859 -1.783,-7.269 -3.824,-8.873 -2.588,-2.038 -4.975,-0.992 -6.026,1.167 -0.237,-0.242 -0.435,-0.526 -0.662,-0.779 0.306,-1.38 -0.271,-2.819 -1.12,-3.315 0,-0.378 0,-0.757 0,-1.135 1.424,0.283 2.545,-0.165 3.365,-1.127 0.822,-0.965 1.432,-2.375 1.549,-4.541 0.125,-2.302 -0.447,-4.309 -1.176,-5.851 -0.753,-1.59 -1.736,-2.75 -3.008,-3.566 0.015,-0.106 -0.032,-0.326 0.023,-0.36 2.055,0.912 3.749,3.165 4.815,5.453 1.137,2.438 1.94,5.66 1.549,9.24 2.665,2.526 4.907,6.562 5.067,12.166 0.052,1.758 -0.229,3.202 -0.632,4.319 z" />
<g
   aria-label="malb"
   style="font-size:72px;font-family:Ubuntu;fill:#010101"
   id="text97"><path
     d="m 27.140899,36.680802 q 2.304,-0.576 6.048,-1.224 3.816,-0.648 8.784,-0.648 3.6,0 6.048,1.008 2.448,0.936 4.104,2.808 0.504,-0.36 1.584,-1.008 1.08,-0.648 2.664,-1.224 1.584,-0.648 3.528,-1.08 1.944,-0.504 4.176,-0.504 4.32,0 7.056,1.296 2.736,1.224 4.248,3.528 1.584,2.304 2.088,5.472 0.576,3.168 0.576,6.912 v 21.024 h -6.696 v -19.584 q 0,-3.312 -0.36,-5.688 -0.288,-2.376 -1.224,-3.96 -0.864,-1.584 -2.448,-2.304 -1.512,-0.792 -3.96,-0.792 -3.384,0 -5.616,0.936 -2.16,0.864 -2.952,1.584 0.576,1.872 0.864,4.104 0.288,2.232 0.288,4.68 v 21.024 h -6.696 v -19.584 q 0,-3.312 -0.36,-5.688 -0.36,-2.376 -1.296,-3.96 -0.864,-1.584 -2.448,-2.304 -1.512,-0.792 -3.888,-0.792 -1.008,0 -2.16,0.072 -1.152,0.072 -2.232,0.216 -1.008,0.072 -1.872,0.216 -0.864,0.144 -1.152,0.216 v 31.608 h -6.696 z"
     style="font-size:72px;font-family:Ubuntu;fill:#010101"
     id="path4583" /><path
     d="m 101.80477,68.216802 q 2.376,0 4.176,-0.072 1.872,-0.144 3.096,-0.432 v -11.16 q -0.72,-0.36 -2.376,-0.576 -1.584,-0.288 -3.888,-0.288 -1.512,0 -3.240004,0.216 -1.656,0.216 -3.096,0.936 -1.368,0.648 -2.304,1.872 -0.936,1.152 -0.936,3.096 0,3.6 2.304,5.04 2.304,1.368 6.264004,1.368 z m -0.576,-33.552 q 4.032,0 6.768,1.08 2.808,1.008 4.464,2.952 1.728,1.872 2.448,4.536 0.72,2.592 0.72,5.76 v 23.4 q -0.864,0.144 -2.448,0.432 -1.512,0.216 -3.456,0.432 -1.944,0.216 -4.248,0.36 -2.232,0.216 -4.464,0.216 -3.168004,0 -5.832004,-0.648 -2.664,-0.648 -4.608,-2.016 -1.944,-1.44 -3.024,-3.744 -1.08,-2.304 -1.08,-5.544 0,-3.096 1.224,-5.328 1.296,-2.232 3.456,-3.6 2.16,-1.368 5.04,-2.016 2.88,-0.648 6.048004,-0.648 1.008,0 2.088,0.144 1.08,0.072 2.016,0.288 1.008,0.144 1.728,0.288 0.72,0.144 1.008,0.216 v -1.872 q 0,-1.656 -0.36,-3.24 -0.36,-1.656 -1.296,-2.88 -0.936,-1.296 -2.592,-2.016 -1.584,-0.792 -4.176,-0.792 -3.312004,0 -5.832004,0.504 -2.448,0.432 -3.672,0.936 l -0.792,-5.544 q 1.296,-0.576 4.32,-1.08 3.024,-0.576 6.552004,-0.576 z"
     style="font-size:72px;font-family:Ubuntu;fill:#010101"
     id="path4585" /><path
     d="m 137.94872,73.760802 q -6.192,-0.144 -8.784,-2.664 -2.592,-2.52 -2.592,-7.848 v -44.928 l 6.696,-1.152 v 45 q 0,1.656 0.288,2.736 0.288,1.08 0.936,1.728 0.648,0.648 1.728,1.008 1.08,0.288 2.664,0.504 z"
     style="font-size:72px;font-family:Ubuntu;fill:#010101"
     id="path4587" /><path
     d="m 153.06863,37.256802 q 1.224,-0.792 3.672,-1.656 2.52,-0.864 5.76,-0.864 4.032,0 7.128,1.44 3.168,1.44 5.328,4.032 2.16,2.592 3.24,6.192 1.152,3.6 1.152,7.92 0,4.536 -1.368,8.208 -1.296,3.6 -3.744,6.12 -2.448,2.52 -5.904,3.888 -3.456,1.368 -7.776,1.368 -4.68,0 -8.28,-0.648 -3.6,-0.648 -5.904,-1.296 v -53.64 l 6.696,-1.152 z m 0,29.952 q 1.008,0.288 2.808,0.576 1.872,0.216 4.608,0.216 5.4,0 8.64,-3.528 3.24,-3.6 3.24,-10.152 0,-2.88 -0.576,-5.4 -0.576,-2.52 -1.872,-4.32 -1.296,-1.872 -3.384,-2.88 -2.016,-1.08 -4.896,-1.08 -2.736,0 -5.04,0.936 -2.304,0.936 -3.528,1.944 z"
     style="font-size:72px;font-family:Ubuntu;fill:#010101"
     id="path4589" /></g>
<g
   aria-label="x"
   style="font-size:72px;font-family:Ubuntu;fill:#010101"
   id="text9"><path
     d="m 292.54751,73.161903 q -0.792,-1.584 -1.944,-3.528 -1.152,-1.944 -2.52,-3.96 -1.368,-2.088 -2.808,-4.104 -1.44,-2.016 -2.808,-3.816 -1.368,1.8 -2.808,3.888 -1.44,2.016 -2.808,4.104 -1.296,2.016 -2.448,3.96 -1.152,1.944 -1.944,3.456 h -6.912 q 2.52,-4.896 5.976,-9.936 3.528,-5.112 6.984,-9.72 l -12.384,-17.784 h 7.56 l 8.928,13.104 9,-13.104 h 7.128 l -12.096,17.352 q 3.456,4.68 7.056,9.936 3.672,5.184 6.192,10.152 z"
     style="font-size:72px;font-family:Ubuntu;fill:#010101"
     id="path4592" /></g>
<g
   aria-label="es"
   style="font-size:72px;font-family:Ubuntu;fill:#010101"
   id="text11"><path
     d="m 303.4191,54.513903 q 0,-4.968 1.44,-8.64 1.44,-3.744 3.816,-6.192 2.376,-2.448 5.472,-3.672 3.096,-1.224 6.336,-1.224 7.56,0 11.592,4.752 4.032,4.68 4.032,14.328 0,0.432 0,1.152 0,0.648 -0.072,1.224 h -25.632 q 0.432,5.832 3.384,8.856 2.952,3.024 9.216,3.024 3.528,0 5.904,-0.576 2.448,-0.648 3.672,-1.224 l 0.936,5.616 q -1.224,0.648 -4.32,1.368 -3.024,0.72 -6.912,0.72 -4.896,0 -8.496,-1.44 -3.528,-1.512 -5.832,-4.104 -2.304,-2.592 -3.456,-6.12 -1.08,-3.6 -1.08,-7.848 z m 25.704,-3.672 q 0.072,-4.536 -2.304,-7.416 -2.304,-2.952 -6.408,-2.952 -2.304,0 -4.104,0.936 -1.728,0.864 -2.952,2.304 -1.224,1.44 -1.944,3.312 -0.648,1.872 -0.864,3.816 z"
     style="font-size:72px;font-family:Ubuntu;fill:#010101"
     id="path4595" /><path
     d="m 354.46696,68.337903 q 4.104,0 6.048,-1.08 2.016,-1.08 2.016,-3.456 0,-2.448 -1.944,-3.888 -1.944,-1.44 -6.408,-3.24 -2.16,-0.864 -4.176,-1.728 -1.944,-0.936 -3.384,-2.16 -1.44,-1.224 -2.304,-2.952 -0.864,-1.728 -0.864,-4.248 0,-4.968 3.672,-7.848 3.672,-2.952 10.008,-2.952 1.584,0 3.168,0.216 1.584,0.144 2.952,0.432 1.368,0.216 2.376,0.504 1.08,0.288 1.656,0.504 l -1.224,5.76 q -1.08,-0.576 -3.384,-1.152 -2.304,-0.648 -5.544,-0.648 -2.808,0 -4.896,1.152 -2.088,1.08 -2.088,3.456 0,1.224 0.432,2.16 0.504,0.936 1.44,1.728 1.008,0.72 2.448,1.368 1.44,0.648 3.456,1.368 2.664,1.008 4.752,2.016 2.088,0.936 3.528,2.232 1.512,1.296 2.304,3.168 0.792,1.8 0.792,4.464 0,5.184 -3.888,7.848 -3.816,2.664 -10.944,2.664 -4.968,0 -7.776,-0.864 -2.808,-0.792 -3.816,-1.224 l 1.224,-5.76 q 1.152,0.432 3.672,1.296 2.52,0.864 6.696,0.864 z"
     style="font-size:72px;font-family:Ubuntu;fill:#010101"
     id="path4597" /></g>
</svg>