<?xml version="1.0" encoding="UTF-8" standalone="no"?>
<!-- Generator: Adobe Illustrator 15.0.0, SVG Export Plug-In . SVG Version: 6.00 Build 0)  -->

<svg
   xmlns:dc="http://purl.org/dc/elements/1.1/"
   xmlns:cc="http://creativecommons.org/ns#"
   xmlns:rdf="http://www.w3.org/1999/02/22-rdf-syntax-ns#"
   xmlns:svg="http://www.w3.org/2000/svg"
   xmlns="http://www.w3.org/2000/svg"
   xmlns:sodipodi="http://sodipodi.sourceforge.net/DTD/sodipodi-0.dtd"
   xmlns:inkscape="http://www.inkscape.org/namespaces/inkscape"
   version="1.1"
   id="svg106"
   sodipodi:docname="malboxes-source.svg"
   inkscape:version="0.92.4 5da689c313, 2019-01-14"
   x="0px"
   y="0px"
   width="395"
   height="100"
   viewBox="0 0 395 100"
   enable-background="new 0 0 410.979 101.395"
   xml:space="preserve"><metadata
   id="metadata16"><rdf:RDF><cc:Work
       rdf:about=""><dc:format>image/svg+xml</dc:format><dc:type
         rdf:resource="http://purl.org/dc/dcmitype/StillImage" /><dc:title></dc:title></cc:Work></rdf:RDF></metadata><defs
   id="defs14" />
<sodipodi:namedview
   id="namedview108"
   inkscape:current-layer="svg106"
   guidetolerance="10"
   inkscape:pageopacity="0"
   inkscape:window-x="0"
   inkscape:window-y="27"
   inkscape:zoom="2.7641315"
   inkscape:cx="123.90872"
   inkscape:window-width="2560"
   borderopacity="1"
   objecttolerance="10"
   inkscape:window-height="1016"
   inkscape:cy="50.697498"
   bordercolor="#666666"
   inkscape:window-maximized="1"
   inkscape:pageshadow="2"
   showgrid="true"
   gridtolerance="10"
   pagecolor="#ffffff"
   inkscape:snap-grids="true">
	<inkscape:grid
   type="xygrid"
   id="grid823" /></sodipodi:namedview>
<g
   id="Layer_1"
   transform="translate(0,-1.3949966)">
</g>
<g
   id="Layer_2"
   transform="translate(0,-1.3949966)">
</g>
<polygon
   id="polygon91"
   points="254.25,31.073 254.25,76.477 222.851,89.243 222.851,39.358 "
   transform="translate(0,-1.3949966)" />
<polygon
   id="polygon93"
   points="190.732,30.553 222.626,24.16 254.25,30.553 222.325,38.365 "
   transform="translate(0,-1.3949966)" />
<path
   id="path95"
   inkscape:connector-curvature="0"
   d="m 190.306,29.867003 v 45.039 l 31.46,12.942 v -49.918 z m 3.575,33.017 c -0.132,-0.182 -0.201,-0.616 -0.267,-0.976 -0.196,-1.069 -0.314,-2.392 -0.267,-3.644 0.182,-4.872 2.003,-7.218 4.388,-8.018 -0.348,-3.586 0.348,-6.188 1.365,-7.925 1.057,-1.802 2.517,-2.75 4.441,-2.817 0.048,0 0.113,-0.022 0.215,0.023 0.105,0.543 -0.189,0.388 -0.433,0.429 -1.041,0.169 -1.89,0.884 -2.47,1.818 -0.668,1.069 -1.225,2.688 -1.103,5.01 0.113,2.163 0.687,3.895 1.456,5.318 0.793,1.471 1.816,2.554 3.271,3.242 0,0.377 0,0.755 0,1.134 -0.83,-0.064 -1.405,0.961 -1.106,2.51 -0.183,0.173 -0.422,0.236 -0.623,0.371 -1,-2.635 -3.142,-5.352 -5.61,-4.993 -2.027,0.293 -3.8,2.918 -3.235,7.398 0.029,0.232 0.062,0.526 0.088,0.738 0.035,0.25 0.083,0.373 -0.11,0.382 z m 10.407,-14.18 c 1.931,0.397 3.475,1.97 4.564,3.539 -0.266,0.735 -0.643,1.266 -1.068,1.704 -0.76,-1.065 -1.795,-2.152 -3.061,-2.548 -1.248,-0.393 -2.259,0.017 -2.972,0.628 -0.44,-0.638 -0.749,-1.431 -1.039,-2.244 0.83,-0.85 2.077,-1.39 3.576,-1.079 z m -1.322,16.187 c -0.125,0.867 -0.333,1.575 -0.619,2.133 -2.475,-2.584 -4.224,-6.299 -3.965,-11.778 0.02,-0.021 0.016,-0.095 0.047,-0.091 0.618,0.179 1.116,0.513 1.581,0.887 -0.228,4.085 1.096,6.933 2.956,8.849 z m 12.346,8.905 c -1.119,1.562 -2.65,2.437 -4.727,2.099 -2.568,-0.418 -4.494,-2.471 -5.838,-4.644 -1.367,1.002 -3.145,1.725 -5.646,0.158 -1.463,-0.911 -2.677,-2.402 -3.577,-4.059 -0.181,-0.334 -0.826,-1.535 -0.745,-1.697 0.149,-0.3 0.447,0.436 0.608,0.726 0.6,1.062 1.296,1.94 2.211,2.588 1.409,0.995 2.76,0.87 3.633,0.354 0.898,-0.533 1.67,-1.724 2.022,-3.232 0.386,-1.651 0.347,-4.152 -0.288,-5.965 0.164,-0.191 0.467,-0.316 0.646,-0.357 0.467,1.212 1.836,1.521 2.254,0.775 0.22,0.262 0.469,0.486 0.635,0.811 -0.65,1.377 -0.686,3.87 -0.293,5.823 0.361,1.803 1.156,3.601 2.096,4.853 0.932,1.241 2.387,2.466 3.934,2.598 1.166,0.099 2.072,-0.367 2.84,-1.184 0.21,-0.223 0.214,-0.25 0.339,0.014 0.091,0.193 0.017,0.173 -0.104,0.339 z m -5.709,-14.539 c 0.502,-0.066 1.049,-0.061 1.742,0.209 0.399,5.941 -1.613,8.591 -4.179,9.356 -0.334,-0.756 -0.519,-1.681 -0.665,-2.642 1.936,-0.566 3.346,-2.526 3.102,-6.923 z m 6.916,11.982 c -0.246,-0.159 -0.197,-0.264 -0.156,-0.517 0.099,-0.651 0.236,-1.438 0.236,-2.281 0,-3.859 -1.783,-7.269 -3.824,-8.873 -2.588,-2.038 -4.975,-0.992 -6.026,1.167 -0.237,-0.242 -0.435,-0.526 -0.662,-0.779 0.306,-1.38 -0.271,-2.819 -1.12,-3.315 0,-0.378 0,-0.757 0,-1.135 1.424,0.283 2.545,-0.165 3.365,-1.127 0.822,-0.965 1.432,-2.375 1.549,-4.541 0.125,-2.302 -0.447,-4.309 -1.176,-5.851 -0.753,-1.59 -1.736,-2.75 -3.008,-3.566 0.015,-0.106 -0.032,-0.326 0.023,-0.36 2.055,0.912 3.749,3.165 4.815,5.453 1.137,2.438 1.94,5.66 1.549,9.24 2.665,2.526 4.907,6.562 5.067,12.166 0.052,1.758 -0.229,3.202 -0.632,4.319 z" />
<text
   id="text97"
   font-size="72"
   style="font-size:72px;font-family:Ubuntu;fill:#010101"
   x="21.380899"
   y="73.040802">malb</text>

<text
   font-size="72"
   id="text9"
   style="font-size:72px;font-family:Ubuntu;fill:#010101"
   x="264.39551"
   y="73.161903">x</text>

<text
   font-size="72"
   id="text11"
   style="font-size:72px;font-family:Ubuntu;fill:#010101"
   x="299.7471"
   y="73.161903">es</text>

</svg>